<?xml version="1.0" encoding="UTF-8" ?>
<!DOCTYPE svg PUBLIC "-//W3C//DTD SVG 1.1//EN" "http://www.w3.org/Graphics/SVG/1.1/DTD/svg11.dtd">
<svg version="1.2" width="186.94mm" height="186.94mm" viewBox="0 0 18694 18694" preserveAspectRatio="xMidYMid" fill-rule="evenodd" stroke-width="28.222" stroke-linejoin="round" xmlns="http://www.w3.org/2000/svg" xmlns:ooo="http://xml.openoffice.org/svg/export" xmlns:xlink="http://www.w3.org/1999/xlink" xmlns:presentation="http://sun.com/xmlns/staroffice/presentation" xmlns:smil="http://www.w3.org/2001/SMIL20/" xmlns:anim="urn:oasis:names:tc:opendocument:xmlns:animation:1.0" xml:space="preserve">
    <defs class="ClipPathGroup">
        <clipPath id="presentation_clip_path" clipPathUnits="userSpaceOnUse">
            <rect x="0" y="0" width="18694" height="18694" />
        </clipPath>
        <clipPath id="presentation_clip_path_shrink" clipPathUnits="userSpaceOnUse">
            <rect x="18" y="18" width="18657" height="18657" />
        </clipPath>
    </defs>
    <defs class="TextShapeIndex">
        <g ooo:slide="id1" ooo:id-list="id3 id4" />
    </defs>
    <defs class="EmbeddedBulletChars">
        <g id="bullet-char-template-57356" transform="scale(0.00048828125,-0.00048828125)">
            <path d="M 580,1141 L 1163,571 580,0 -4,571 580,1141 Z" />
        </g>
        <g id="bullet-char-template-57354" transform="scale(0.00048828125,-0.00048828125)">
            <path d="M 8,1128 L 1137,1128 1137,0 8,0 8,1128 Z" />
        </g>
        <g id="bullet-char-template-10146" transform="scale(0.00048828125,-0.00048828125)">
            <path d="M 174,0 L 602,739 174,1481 1456,739 174,0 Z M 1358,739 L 309,1346 659,739 1358,739 Z" />
        </g>
        <g id="bullet-char-template-10132" transform="scale(0.00048828125,-0.00048828125)">
            <path d="M 2015,739 L 1276,0 717,0 1260,543 174,543 174,936 1260,936 717,1481 1274,1481 2015,739 Z" />
        </g>
        <g id="bullet-char-template-10007" transform="scale(0.00048828125,-0.00048828125)">
            <path d="M 0,-2 C -7,14 -16,27 -25,37 L 356,567 C 262,823 215,952 215,954 215,979 228,992 255,992 264,992 276,990 289,987 310,991 331,999 354,1012 L 381,999 492,748 772,1049 836,1024 860,1049 C 881,1039 901,1025 922,1006 886,937 835,863 770,784 769,783 710,716 594,584 L 774,223 C 774,196 753,168 711,139 L 727,119 C 717,90 699,76 672,76 641,76 570,178 457,381 L 164,-76 C 142,-110 111,-127 72,-127 30,-127 9,-110 8,-76 1,-67 -2,-52 -2,-32 -2,-23 -1,-13 0,-2 Z" />
        </g>
        <g id="bullet-char-template-10004" transform="scale(0.00048828125,-0.00048828125)">
            <path d="M 285,-33 C 182,-33 111,30 74,156 52,228 41,333 41,471 41,549 55,616 82,672 116,743 169,778 240,778 293,778 328,747 346,684 L 369,508 C 377,444 397,411 428,410 L 1163,1116 C 1174,1127 1196,1133 1229,1133 1271,1133 1292,1118 1292,1087 L 1292,965 C 1292,929 1282,901 1262,881 L 442,47 C 390,-6 338,-33 285,-33 Z" />
        </g>
        <g id="bullet-char-template-9679" transform="scale(0.00048828125,-0.00048828125)">
            <path d="M 813,0 C 632,0 489,54 383,161 276,268 223,411 223,592 223,773 276,916 383,1023 489,1130 632,1184 813,1184 992,1184 1136,1130 1245,1023 1353,916 1407,772 1407,592 1407,412 1353,268 1245,161 1136,54 992,0 813,0 Z" />
        </g>
        <g id="bullet-char-template-8226" transform="scale(0.00048828125,-0.00048828125)">
            <path d="M 346,457 C 273,457 209,483 155,535 101,586 74,649 74,723 74,796 101,859 155,911 209,963 273,989 346,989 419,989 480,963 531,910 582,859 608,796 608,723 608,648 583,586 532,535 482,483 420,457 346,457 Z" />
        </g>
        <g id="bullet-char-template-8211" transform="scale(0.00048828125,-0.00048828125)">
            <path d="M -4,459 L 1135,459 1135,606 -4,606 -4,459 Z" />
        </g>
        <g id="bullet-char-template-61548" transform="scale(0.00048828125,-0.00048828125)">
            <path d="M 173,740 C 173,903 231,1043 346,1159 462,1274 601,1332 765,1332 928,1332 1067,1274 1183,1159 1299,1043 1357,903 1357,740 1357,577 1299,437 1183,322 1067,206 928,148 765,148 601,148 462,206 346,322 231,437 173,577 173,740 Z" />
        </g>
    </defs>
    <g>
        <g id="id2" class="Master_Slide">
            <g id="bg-id2" class="Background" />
            <g id="bo-id2" class="BackgroundObjects" />
        </g>
    </g>
    <g class="SlideGroup">
        <g>
            <g id="container-id1">
                <g id="id1" class="Slide" clip-path="url(#presentation_clip_path)">
                    <g class="Page">
                        <g class="Group">
                            <g class="com.sun.star.drawing.ClosedBezierShape">
                                <g id="id3">
                                    <rect class="BoundingBox" stroke="none" fill="none" x="2782" y="3454" width="15895" height="11814" />
                                    <path fill="rgb(249,168,14)" stroke="none" d="M 18676,4944 C 18650,4994 18634,5030 18613,5063 18235,5669 17859,6276 17476,6879 17281,7186 17071,7485 16872,7790 16699,8053 16458,8212 16154,8282 15949,8329 15748,8390 15543,8428 15228,8487 14911,8530 14595,8580 14177,8645 13759,8710 13341,8776 13217,8795 13094,8815 12971,8854 13372,8885 13773,8912 14173,8947 14574,8982 14976,9011 15389,9055 15373,9099 15369,9124 15356,9145 15223,9361 14603,10345 14193,10779 13491,11263 13238,11240 11439,11428 11474,11449 11493,11463 11514,11474 11566,11502 11621,11525 11672,11555 11764,11608 12073,11664 12214,11757 11983,12039 9964,13595 9350,14002 8437,14607 7440,14995 6357,15168 5851,15249 5341,15285 4828,15257 4138,15218 3476,15055 2833,14807 2820,14802 2809,14793 2782,14776 2831,14769 2862,14763 2893,14760 3553,14698 4164,14486 4736,14157 5256,13858 5728,13494 6161,13082 6578,12686 6882,12209 7101,11678 7306,11185 7434,10672 7505,10145 7599,9451 7681,8757 7768,8063 7936,6730 8213,5421 8651,4150 8710,3979 8774,3811 8837,3642 8897,3484 9041,3412 9199,3479 9288,3517 9372,3577 9443,3644 9543,3741 9629,3852 9720,3958 9828,4084 9931,4214 10041,4338 10316,4649 10661,4826 11072,4882 11439,4932 11806,4926 12175,4918 12977,4900 13779,4874 14581,4873 15752,4872 16922,4889 18093,4901 18247,4902 18402,4916 18556,4925 18591,4928 18626,4936 18676,4944 Z" />
                                </g>
                            </g>
                            <g class="com.sun.star.drawing.ClosedBezierShape">
                                <g id="id4">
                                    <rect class="BoundingBox" stroke="none" fill="none" x="25" y="6717" width="6533" height="6534" />
                                    <path fill="rgb(32,29,25)" stroke="none" d="M 25,9983 C 25,8179 1487,6717 3292,6717 5095,6717 6557,8179 6557,9983 6557,11787 5095,13249 3292,13249 1487,13249 25,11787 25,9983 Z" />
                                </g>
                            </g>
                        </g>
                    </g>
                </g>
            </g>
        </g>
    </g>
</svg>