<?xml version="1.0" encoding="UTF-8" standalone="no"?>
<svg
   xmlns:dc="http://purl.org/dc/elements/1.1/"
   xmlns:cc="http://creativecommons.org/ns#"
   xmlns:rdf="http://www.w3.org/1999/02/22-rdf-syntax-ns#"
   xmlns:svg="http://www.w3.org/2000/svg"
   xmlns="http://www.w3.org/2000/svg"
   xmlns:sodipodi="http://sodipodi.sourceforge.net/DTD/sodipodi-0.dtd"
   xmlns:inkscape="http://www.inkscape.org/namespaces/inkscape"
   sodipodi:docname="logo.svg"
   inkscape:version="1.0 (4035a4fb49, 2020-05-01)"
   id="svg8"
   version="1.1"
   viewBox="0 0 194.91553 241.14809"
   height="241.14809mm"
   width="194.91553mm">
  <defs
     id="defs2" />
  <sodipodi:namedview
     units="mm"
     inkscape:snap-page="false"
     inkscape:window-maximized="0"
     inkscape:window-y="0"
     inkscape:window-x="1970"
     inkscape:window-height="1043"
     inkscape:window-width="1406"
     showgrid="false"
     inkscape:document-rotation="0"
     inkscape:current-layer="g883"
     inkscape:document-units="mm"
     inkscape:cy="797.21687"
     inkscape:cx="-428.2437"
     inkscape:zoom="0.41576495"
     inkscape:pageshadow="2"
     inkscape:pageopacity="0.0"
     borderopacity="1.0"
     bordercolor="#666666"
     pagecolor="#ffffff"
     id="base"
     fit-margin-top="0"
     fit-margin-left="0"
     fit-margin-right="0"
     fit-margin-bottom="0" />
  <metadata
     id="metadata5">
    <rdf:RDF>
      <cc:Work
         rdf:about="">
        <dc:format>image/svg+xml</dc:format>
        <dc:type
           rdf:resource="http://purl.org/dc/dcmitype/StillImage" />
        <dc:title></dc:title>
      </cc:Work>
    </rdf:RDF>
  </metadata>
  <g
     id="layer1"
     inkscape:groupmode="layer"
     inkscape:label="Layer 1"
     transform="translate(-7.7410577,-26.791508)">
    <g
       transform="matrix(0.26458333,0,0,0.26458333,107.38514,121.15764)"
       id="g883"
       style="fill:none">
      <g
         id="g900"
         transform="translate(0,68)">
        <path
           d="m -274.29756,439.36658 h -78.93 c 0.9325,8.26612 3.92875,14.86612 8.99125,19.79987 5.0625,4.8 11.72375,7.2 19.9825,7.2 5.4625,0 10.39125,-1.33375 14.7875,-4 4.39625,-2.66625 7.52625,-6.26625 9.39125,-10.8 h 23.98 c -3.1975,10.53375 -9.1925,19.06625 -17.985,25.6 -8.65875,6.4 -18.91625,9.6 -30.7725,9.6 -15.45375,0 -27.97625,-5.13375 -37.5675,-15.4 -9.45875,-10.26625 -14.1875,-23.26625 -14.1875,-38.99987 0,-15.33325 4.79625,-28.2 14.3875,-38.6 9.59125,-10.4 21.98,-15.6 37.1675,-15.6 15.18625,0 27.4425,5.13337 36.7675,15.4 9.45875,10.13337 14.1875,22.93337 14.1875,38.4 z m -50.755,-41.8 c -7.46,0 -13.655,2.2 -18.58375,6.6 -4.92875,4.4 -7.99375,10.26675 -9.1925,17.6 h 55.1525 c -1.06625,-7.33325 -3.99625,-13.2 -8.7925,-17.6 -4.79625,-4.4 -10.99,-6.6 -18.58375,-6.6 z"
           fill="#000000"
           id="path2"
           style="stroke-width:12.5" />
        <path
           d="M -257.73381,453.36645 V 334.36658 h 23.78 v 119.39987 c 0,5.33375 2.93,8 8.7925,8 l 4.19625,-0.2 v 22.6 c -2.265,0.4 -4.6625,0.6 -7.19375,0.6 -10.2575,0 -17.785,-2.6 -22.58,-7.8 -4.66375,-5.2 -6.995,-13.06625 -6.995,-23.6 z"
           fill="#000000"
           id="path4"
           style="stroke-width:12.5" />
        <path
           d="m -110.22131,439.36658 h -78.93125 c 0.9325,8.26612 3.93,14.86612 8.9925,19.79987 5.0625,4.8 11.7225,7.2 19.9825,7.2 5.46125,0 10.39125,-1.33375 14.78625,-4 4.39625,-2.66625 7.5275,-6.26625 9.3925,-10.8 h 23.97875 c -3.1975,10.53375 -9.19125,19.06625 -17.98375,25.6 -8.66,6.4 -18.9175,9.6 -30.77375,9.6 -15.4525,0 -27.975,-5.13375 -37.5675,-15.4 -9.4575,-10.26625 -14.1875,-23.26625 -14.1875,-38.99987 0,-15.33325 4.79625,-28.2 14.3875,-38.6 9.5925,-10.4 21.98125,-15.6 37.1675,-15.6 15.1875,0 27.44375,5.13337 36.76875,15.4 9.4575,10.13337 14.1875,22.93337 14.1875,38.4 z m -50.75625,-41.8 c -7.46,0 -13.65375,2.2 -18.58375,6.6 -4.92875,4.4 -7.9925,10.26675 -9.19125,17.6 h 55.15125 c -1.065,-7.33325 -3.99625,-13.2 -8.7925,-17.6 -4.795,-4.4 -10.99,-6.6 -18.58375,-6.6 z"
           fill="#000000"
           id="path6"
           style="stroke-width:12.5" />
        <path
           d="m -2.9363045,424.76658 v 59.59987 H -26.716304 v -62.19987 c 0,-15.73325 -6.5275,-23.6 -19.5825,-23.6 -7.06125,0 -12.7225,2.26675 -16.985,6.8 -4.13,4.53337 -6.195,10.73337 -6.195,18.6 v 60.39987 H -93.257557 V 380.56658 h 21.980003 v 13.8 c 2.53125,-4.66663 6.395,-8.53325 11.59,-11.6 5.19625,-3.06663 11.65625,-4.6 19.38375,-4.6 14.3875,0 24.7775,5.46675 31.1724995,16.4 8.79250004,-10.93325 20.5150005,-16.4 35.1687495,-16.4 12.123751,0 21.448751,3.8 27.976251,11.4 6.5275,7.46675 9.79125,17.33337 9.79125,29.6 v 65.19987 h -23.77875 v -62.19987 c 0,-15.73325 -6.52875,-23.6 -19.583751,-23.6 -7.19375,0 -12.9212495,2.33337 -17.1849995,7 -4.12999996,4.53337 -6.19375,10.93337 -6.19375,19.2 z"
           fill="#000000"
           id="path8"
           style="stroke-width:12.5" />
        <path
           d="M 181.72354,438.74966 H 102.7923 c 0.9325,8.26612 3.93,14.86612 8.9925,19.79987 5.0625,4.8 11.72374,7.2 19.98249,7.2 5.4625,0 10.39125,-1.33375 14.7875,-4 4.39625,-2.66625 7.52625,-6.26625 9.39125,-10.8 h 23.98 c -3.1975,10.53375 -9.1925,19.06625 -17.985,25.6 -8.65875,6.4 -18.91625,9.6 -30.7725,9.6 -15.45374,0 -27.97624,-5.13375 -37.567496,-15.4 -9.45875,-10.26625 -14.1875,-23.26625 -14.1875,-38.99987 0,-15.33325 4.795,-28.2 14.3875,-38.6 9.591256,-10.4 21.980006,-15.6 37.167496,-15.6 15.18625,0 27.4425,5.13337 36.7675,15.4 9.45875,10.13337 14.1875,22.93337 14.1875,38.4 z m -50.755,-41.8 c -7.46,0 -13.65499,2.2 -18.58374,6.6 -4.93,4.4 -7.99375,10.26675 -9.1925,17.6 h 55.15249 c -1.06625,-7.33325 -3.9975,-13.2 -8.7925,-17.6 -4.79625,-4.4 -10.99125,-6.6 -18.58375,-6.6 z"
           fill="#000000"
           id="path10"
           style="stroke-width:12.5" />
        <path
           d="m 217.45509,373.85474 v 13.8 c 2.3975,-4.53325 6.3275,-8.33325 11.78875,-11.4 5.595,-3.2 12.3225,-4.8 20.1825,-4.8 12.25625,0 21.715,3.73337 28.375,11.2 6.795,7.46675 10.19125,17.4 10.19125,29.8 v 65.19987 h -23.77875 v -62.19987 c 0,-7.33325 -1.7325,-13.06663 -5.195,-17.2 -3.33125,-4.26663 -8.46,-6.4 -15.3875,-6.4 -7.5925,0 -13.5875,2.26675 -17.98375,6.8 -4.26375,4.53337 -6.395,10.8 -6.395,18.8 v 60.19987 H 195.47384 V 373.85474 Z"
           fill="#000000"
           id="path12"
           style="stroke-width:12.5" />
        <path
           d="m 359.68108,460.95936 v 20.6 c -2.93,0.8 -7.06,1.2 -12.38875,1.2 -20.24875,0 -30.37375,-10.2 -30.37375,-30.6 v -54.79987 h -15.78625 v -19 h 15.78625 v -27 h 23.77875 v 27 h 19.38375 v 19 h -19.38375 v 52.39987 c 0,8.13375 3.86375,12.2 11.59,12.2 z"
           fill="#000000"
           id="path14"
           style="stroke-width:12.5" />
      </g>
      <g
         transform="translate(-519.60756,-518.6594)"
         id="g877"
         style="fill:none">
        <g
           id="g891">
          <path
             id="path857"
             fill="#0dbd8b"
             d="m 414,204 c 0,-23.196 18.804,-42 42,-42 154.64,0 280,125.36 280,280 0,23.196 -18.804,42 -42,42 -23.196,0 -42,-18.804 -42,-42 0,-108.248 -87.752,-196 -196,-196 -23.196,0 -42,-18.804 -42,-42 z"
             clip-rule="evenodd"
             fill-rule="evenodd" />
          <path
             id="path859"
             fill="#0dbd8b"
             d="m 610,820 c 0,23.196 -18.804,42 -42,42 -154.64,0 -280,-125.36 -280,-280 0,-23.196 18.804,-42 42,-42 23.196,0 42,18.804 42,42 0,108.248 87.752,196 196,196 23.196,0 42,18.804 42,42 z"
             clip-rule="evenodd"
             fill-rule="evenodd" />
          <path
             id="path861"
             fill="#0dbd8b"
             d="m 204,610 c -23.196,0 -42,-18.804 -42,-42 0,-154.64 125.36,-280 280,-280 23.196,0 42,18.804 42,42 0,23.196 -18.804,42 -42,42 -108.248,0 -196,87.752 -196,196 0,23.196 -18.804,42 -42,42 z"
             clip-rule="evenodd"
             fill-rule="evenodd" />
          <path
             id="path863"
             fill="#0dbd8b"
             d="m 820,414 c 23.196,0 42,18.804 42,42 0,154.64 -125.36,280 -280,280 -23.196,0 -42,-18.804 -42,-42 0,-23.196 18.804,-42 42,-42 108.248,0 196,-87.752 196,-196 0,-23.196 18.804,-42 42,-42 z"
             clip-rule="evenodd"
             fill-rule="evenodd" />
        </g>
      </g>
    </g>
  </g>
</svg>
